<?xml version="1.0" standalone="no"?>
<!DOCTYPE svg PUBLIC "-//W3C//DTD SVG 20010904//EN"
 "http://www.w3.org/TR/2001/REC-SVG-20010904/DTD/svg10.dtd">
<svg version="1.0" xmlns="http://www.w3.org/2000/svg"
 width="72.000000pt" height="72.000000pt" viewBox="0 0 72.000000 72.000000"
 preserveAspectRatio="xMidYMid meet">
<metadata>
Created by potrace 1.11, written by Peter Selinger 2001-2013
</metadata>
<g transform="translate(0.000000,72.000000) scale(0.100000,-0.100000)"
fill="#000000" stroke="none">
<path d="M315 714 c-164 -41 -263 -129 -298 -264 -47 -181 57 -371 232 -426
241 -76 480 108 466 359 -9 177 -153 319 -335 330 -30 2 -59 3 -65 1z m15 -42
c0 -5 -22 -14 -50 -21 -108 -28 -199 -125 -217 -233 -19 -118 13 -207 103
-286 60 -53 126 -75 212 -70 263 15 383 330 194 514 -51 50 -105 75 -174 81
-57 6 -85 21 -29 17 53 -4 96 -16 145 -42 170 -92 213 -330 85 -476 -121 -138
-336 -143 -464 -11 -165 169 -89 448 140 518 28 8 51 15 53 16 1 1 2 -3 2 -7z
m136 -43 c108 -40 174 -134 182 -257 4 -66 2 -78 -27 -137 -108 -219 -423
-216 -525 5 -30 65 -29 188 2 248 71 135 225 194 368 141z"/>
<path d="M198 574 c-33 -18 -29 -7 -34 -81 -4 -54 -2 -63 15 -73 11 -5 28 -9
38 -8 40 3 63 -3 63 -17 0 -8 6 -12 13 -9 7 2 20 -9 30 -26 14 -23 16 -34 7
-50 -9 -17 -14 -19 -25 -10 -8 7 -20 8 -26 4 -7 -4 -9 -3 -5 4 3 6 -1 15 -11
20 -14 8 -25 0 -60 -51 -48 -68 -50 -75 -25 -84 19 -7 42 -35 37 -43 -2 -3 5
-11 15 -18 15 -9 18 -9 15 1 -6 17 32 60 46 52 7 -5 9 0 7 12 -3 19 47 103 62
103 14 0 64 -85 61 -104 -2 -12 1 -16 9 -11 12 7 47 -33 42 -49 -2 -5 4 -6 13
-2 9 3 19 6 21 6 3 0 2 5 -1 10 -7 12 12 33 38 43 24 9 22 16 -29 87 -38 52
-49 61 -58 49 -6 -8 -21 -20 -33 -26 -19 -11 -24 -10 -33 7 -13 25 15 81 37
73 7 -3 13 2 13 11 0 9 6 13 14 10 8 -3 17 -1 20 5 4 6 20 8 35 5 24 -5 32 -1
46 19 10 15 13 31 9 39 -5 7 -7 25 -5 40 3 35 -30 68 -68 68 -17 0 -32 -4 -36
-10 -3 -5 -12 -7 -21 -3 -32 12 -72 -55 -43 -72 16 -11 4 -103 -17 -126 -18
-20 -18 -20 -31 6 -18 33 -25 106 -12 121 23 28 6 58 -46 76 -59 21 -53 21
-87 2z m70 -21 c5 -10 7 -23 5 -30 -2 -6 1 -14 7 -18 6 -3 10 -3 9 2 -1 4 -1
19 0 32 1 23 2 24 21 6 11 -10 20 -22 20 -26 0 -15 -33 -40 -47 -35 -8 3 -11
1 -8 -4 3 -6 13 -10 21 -10 21 0 17 -17 -8 -34 -30 -21 -49 -21 -41 1 4 11 3
14 -5 9 -7 -4 -12 -1 -12 9 0 9 -5 13 -10 10 -8 -5 -8 -11 0 -20 17 -20 -4
-26 -28 -9 -29 20 -29 48 -1 41 19 -5 20 -4 5 12 -22 24 -20 47 6 65 29 21 55
20 66 -1z m265 -11 c25 -22 22 -45 -5 -36 -22 6 -22 6 2 -13 22 -19 23 -23 12
-48 -12 -27 -50 -32 -44 -6 1 7 -2 10 -8 6 -5 -3 -10 -1 -10 5 0 6 -5 8 -10 5
-8 -5 -7 -11 1 -21 17 -21 -19 -19 -43 3 -20 18 -25 49 -6 37 7 -4 8 -3 4 4
-4 8 0 12 10 12 14 0 15 3 6 12 -10 10 -15 10 -22 -2 -9 -13 -11 -13 -19 -1
-10 16 3 51 19 51 22 0 25 -2 23 -18 -2 -10 0 -12 3 -4 5 10 9 10 20 1 9 -8
14 -8 14 -1 0 6 -5 14 -10 17 -6 4 -8 11 -4 16 7 12 43 2 67 -19z m-249 -304
c-3 -5 -13 -7 -21 -4 -12 5 -14 1 -10 -14 6 -23 -5 -26 -23 -5 -9 11 -8 19 7
39 16 22 20 23 35 9 10 -9 15 -20 12 -25z m200 10 c11 -16 13 -25 4 -35 -16
-20 -27 -16 -20 9 3 14 2 19 -6 14 -19 -12 -35 3 -21 20 16 19 25 18 43 -8z"/>
<path d="M245 540 c-3 -5 -1 -10 4 -10 6 0 11 5 11 10 0 6 -2 10 -4 10 -3 0
-8 -4 -11 -10z"/>
<path d="M200 506 c0 -2 7 -7 16 -10 8 -3 12 -2 9 4 -6 10 -25 14 -25 6z"/>
<path d="M508 468 c9 -9 15 -9 24 0 9 9 7 12 -12 12 -19 0 -21 -3 -12 -12z"/>
</g>
</svg>
